<svg xmlns="http://www.w3.org/2000/svg" viewBox="0 0 512 512"><circle cx="256" cy="256" r="256" fill="#002727"/><path d="M167.285 0L436.816-421.875L462.598-421.875L193.652 0L167.285 0ZM115.430 0L384.668-421.875L410.449-421.875L141.211 0L115.430 0ZM63.281 0L332.520-421.875L358.594-421.875L89.355 0L63.281 0ZM11.426 0L280.371-421.875L306.738-421.875L37.207 0L11.426 0ZM37.207-421.875L151.465-242.871L138.574-222.363L11.426-421.875L37.207-421.875ZM280.371 0L243.750-57.715L256.641-78.223L306.738 0L280.371 0ZM89.355-421.875L177.539-283.594L164.648-263.379L63.574-421.875L89.355-421.875ZM332.813 0L269.824-98.730L282.715-118.945L358.594 0L332.813 0ZM141.504-421.875L203.613-324.609L190.723-304.102L115.430-421.875L141.504-421.875ZM384.668 0L295.605-139.453L308.789-159.961L410.742 0L384.668 0ZM193.652-421.875L229.688-365.332L216.504-344.824L167.285-421.875L193.652-421.875ZM436.816 0L321.680-180.176L334.863-200.391L462.598 0L436.816 0Z" fill="#00cb00" transform="translate(18.988001823425293, 466.9375)"/></svg>